<svg xmlns="http://www.w3.org/2000/svg" xmlns:xlink="http://www.w3.org/1999/xlink" width="500" zoomAndPan="magnify" viewBox="0 0 375 374.999991" height="500" preserveAspectRatio="xMidYMid meet" version="1.0"><rect x="-37.5" width="450" fill="#ffffff" y="-37.499999" height="449.999989" fill-opacity="1"/><rect x="-37.5" width="450" fill="#ffffff" y="-37.499999" height="449.999989" fill-opacity="1"/><path fill="#a6a6a6" d="M 341.667969 0 L 216.667969 0 C 216.25 0 215.417969 0 215 0 C 214.582031 0 214.167969 0 214.167969 0.417969 C 214.167969 0.417969 213.75 0.417969 213.75 0.417969 C 213.332031 0.417969 212.917969 0.832031 212.5 0.832031 C 212.5 0.832031 212.082031 0.832031 212.082031 0.832031 C 211.667969 1.25 211.25 1.667969 210.832031 1.667969 L 135.832031 76.667969 C 135.417969 77.082031 135 77.5 135 77.917969 C 135 77.917969 135 77.917969 134.582031 78.332031 C 134.582031 78.75 134.167969 79.167969 134.167969 79.582031 C 134.167969 79.582031 134.167969 80 134.167969 80 C 134.167969 80.417969 133.75 80.832031 133.75 80.832031 C 133.75 81.25 133.75 82.082031 133.75 82.5 L 133.75 160.417969 C 125.832031 158.332031 117.5 157.5 108.75 157.5 C 48.75 158.332031 0 207.082031 0 266.667969 C 0 326.25 48.75 375 108.332031 375 C 142.917969 375 173.75 358.75 193.75 333.332031 L 341.667969 333.332031 C 360 333.332031 375 318.332031 375 300 L 375 33.332031 C 375 15 360 0 341.667969 0 Z M 208.332031 28.332031 L 208.332031 58.332031 C 208.332031 67.5 200.832031 75 191.667969 75 L 161.667969 75 Z M 108.332031 358.332031 C 57.917969 358.332031 16.667969 317.082031 16.667969 266.667969 C 16.667969 216.25 57.917969 175 108.332031 175 C 158.75 175 200 216.25 200 266.667969 C 200 317.082031 158.75 358.332031 108.332031 358.332031 Z M 358.332031 300 C 358.332031 309.167969 350.832031 316.667969 341.667969 316.667969 L 204.167969 316.667969 C 212.082031 301.667969 216.667969 284.582031 216.667969 266.667969 C 216.667969 221.667969 189.167969 182.917969 150 166.667969 L 150 91.667969 L 191.667969 91.667969 C 210 91.667969 225 76.667969 225 58.332031 L 225 16.667969 L 341.667969 16.667969 C 350.832031 16.667969 358.332031 24.167969 358.332031 33.332031 Z M 333.332031 266.667969 C 333.332031 271.25 329.582031 275 325 275 L 250 275 C 245.417969 275 241.667969 271.25 241.667969 266.667969 C 241.667969 262.082031 245.417969 258.332031 250 258.332031 L 325 258.332031 C 329.582031 258.332031 333.332031 262.082031 333.332031 266.667969 Z M 333.332031 225 C 333.332031 229.582031 329.582031 233.332031 325 233.332031 L 250 233.332031 C 245.417969 233.332031 241.667969 229.582031 241.667969 225 C 241.667969 220.417969 245.417969 216.667969 250 216.667969 L 325 216.667969 C 329.582031 216.667969 333.332031 220.417969 333.332031 225 Z M 300 145.832031 C 300 138.75 294.582031 133.332031 287.5 133.332031 C 271.25 133.332031 258.332031 120.417969 258.332031 104.167969 C 258.332031 90.832031 267.082031 80 279.167969 76.25 L 279.167969 66.667969 C 279.167969 62.082031 282.917969 58.332031 287.5 58.332031 C 292.082031 58.332031 295.832031 62.082031 295.832031 66.667969 L 295.832031 76.25 C 307.917969 80 316.667969 90.832031 316.667969 104.167969 C 316.667969 108.75 312.917969 112.5 308.332031 112.5 C 303.75 112.5 300 108.75 300 104.167969 C 300 97.082031 294.582031 91.667969 287.5 91.667969 C 280.417969 91.667969 275 97.082031 275 104.167969 C 275 110.832031 280.417969 116.667969 287.5 116.667969 C 303.75 116.667969 316.667969 129.582031 316.667969 145.832031 C 316.667969 159.167969 307.917969 170 295.832031 173.75 L 295.832031 183.332031 C 295.832031 187.917969 292.082031 191.667969 287.5 191.667969 C 282.917969 191.667969 279.167969 187.917969 279.167969 183.332031 L 279.167969 173.75 C 267.082031 170 258.332031 159.167969 258.332031 145.832031 C 258.332031 141.25 262.082031 137.5 266.667969 137.5 C 271.25 137.5 275 141.25 275 145.832031 C 275 152.5 280.417969 158.332031 287.5 158.332031 C 294.582031 158.332031 300 152.5 300 145.832031 Z M 152.5 234.167969 C 155.832031 237.5 155.832031 242.5 152.5 245.832031 L 99.582031 299.167969 C 97.917969 300.832031 95.832031 301.667969 93.75 301.667969 C 91.667969 301.667969 89.582031 300.832031 87.917969 299.167969 L 64.167969 275.417969 C 60.832031 272.082031 60.832031 267.082031 64.167969 263.75 C 67.5 260.417969 72.5 260.417969 75.832031 263.75 L 93.332031 281.25 L 140.417969 234.167969 C 144.167969 230.832031 149.167969 230.832031 152.5 234.167969 Z M 152.5 234.167969 " fill-opacity="1" fill-rule="nonzero"/></svg>