<svg version="1.2" xmlns="http://www.w3.org/2000/svg" viewBox="0 0 64 64" width="64" height="64">
	<title>subscription-icon-svg</title>
	<defs>
		<clipPath clipPathUnits="userSpaceOnUse" id="cp1">
			<path d="m7.59 20.03h54.62v42.56h-54.62z"/>
		</clipPath>
	</defs>
	<style>
		.s0 { fill: #c1dbf6 } 
		.s1 { fill: #faf7f7 } 
		.s2 { fill: #fbdbd0 } 
	</style>
	<path id="Layer" class="s0" d="m49.5 22.7l-17.3-8.3c0-0.1-0.2-0.1-0.2 0l-17.3 8.2c-0.1 0.1-0.2 0.2-0.2 0.3 0 0.2 0.1 0.2 0.2 0.3l17.3 8.3c0 0 0 0 0.1 0 0.1 0 0.1 0 0.1 0l17.3-8.2c0.1-0.1 0.2-0.2 0.2-0.3 0-0.1-0.1-0.3-0.2-0.3z"/>
	<path id="Layer" class="s1" d="m39.2 17.9c0-0.2-0.1-0.3-0.3-0.3l-6.7-3.2c0-0.1-0.2-0.1-0.2 0l-17.3 8.2c-0.1 0.1-0.2 0.3-0.2 0.3 0 0.2 0.1 0.3 0.2 0.3l6.9 3.2c0 0 0 0 0.1 0 0.1 0 0.1 0 0.1 0l17.1-8.3c0.2 0 0.3-0.1 0.3-0.2z"/>
	<path id="Layer" class="s1" d="m49.5 22.6l-7.3-3.6c-0.1-0.1-0.2-0.1-0.3 0l-17.1 8.4c-0.2 0.1-0.2 0.2-0.2 0.3 0 0.1 0 0.3 0.2 0.3l7.2 3.5c0 0 0 0.1 0.1 0.1 0.1 0 0.1 0 0.1 0l17.3-8.3c0.1 0 0.2-0.2 0.2-0.2q0-0.3-0.2-0.5z"/>
	<path id="Layer" class="s0" d="m32.2 31l-17.2-8.3c-0.1-0.1-0.2-0.1-0.3 0-0.1 0.1-0.1 0.2-0.1 0.3v18.5c0 0.2 0 0.2 0.2 0.3l17.2 8.3c0.1 0 0.1 0 0.2 0 0 0 0.1 0 0.1-0.1 0.1-0.1 0.1-0.1 0.1-0.3v-18.4c0-0.2-0.1-0.2-0.2-0.3z"/>
	<path id="Layer" class="s2" d="m49.5 22.7c-0.1-0.1-0.2-0.1-0.3 0l-17.2 8.3c-0.2 0.1-0.2 0.1-0.2 0.3v18.5c0 0.1 0 0.2 0.1 0.3 0.1 0 0.1 0 0.1 0 0.1 0 0.1 0 0.2 0l17.3-8.3c0.1-0.1 0.2-0.1 0.2-0.3v-18.5c0-0.1-0.1-0.2-0.2-0.3z"/>
	<path id="Layer" class="s2" d="m25.6 36.3c-0.2 0-0.3-0.1-0.5-0.2l-7-3.3c-0.6-0.2-0.9-1.1-0.6-1.7 0.3-0.6 1-0.9 1.7-0.6l6.9 3.3c0.7 0.3 0.9 1.1 0.7 1.7-0.3 0.5-0.7 0.8-1.2 0.8z"/>
	<path id="Layer" class="s0" d="m14.5 10.6c9.8-7.8 23.4-8.1 33.3-1.3l-2.1 2.2c-0.3 0.3-0.5 0.7-0.3 1.1q0.2 0.6 0.8 0.8l8.6 2.4c0.1 0 0.2 0.1 0.3 0.1 0.3 0 0.6-0.2 0.8-0.4 0.3-0.2 0.4-0.7 0.3-1.1l-2.6-8.6c-0.1-0.4-0.4-0.7-0.8-0.7-0.4-0.1-0.8 0-1.1 0.3l-2.3 2.3c-10.7-7.6-25.6-7.5-36.3 1.1-10.5 8.4-14.1 22.4-9.1 34.8 0.2 0.5 0.6 0.7 1.1 0.7 0.1 0 0.2 0 0.4-0.1 0.6-0.2 0.9-0.9 0.6-1.5-4.7-11.4-1.2-24.4 8.4-32.1z"/>
	<g id="Clip-Path" clip-path="url(#cp1)">
		<g id="Layer">
			<path id="Layer" class="s0" d="m59.9 20.8c-0.3-0.6-0.9-0.9-1.5-0.6-0.6 0.3-0.9 0.9-0.6 1.5 4.7 11.3 1.3 24.7-8.3 32.4-9.8 7.9-23.4 8.1-33.3 1.3l2.1-2.4c0.3-0.3 0.4-0.7 0.3-1.1-0.1-0.4-0.4-0.7-0.8-0.7l-8.6-2.4c-0.4-0.2-0.9 0-1.2 0.3-0.3 0.3-0.4 0.8-0.3 1.2l2.9 8.9c0.1 0.4 0.5 0.6 0.8 0.7q0.1 0 0.2 0 0.5 0 0.9-0.4l2.1-2.4c5.1 3.6 11.2 5.5 17.3 5.5 6.6 0 13.3-2.2 18.9-6.7 10.5-8.4 14.2-22.9 9.1-35.1z"/>
		</g>
	</g>
</svg>